<svg xmlns="http://www.w3.org/2000/svg" viewBox="0 0 1024 1024" role="img"
    aria-label="Ícone força + progressão + IA">
    <defs>
        <!-- Gradientes -->
        <linearGradient id="g-border" x1="0" x2="1" y1="0" y2="1">
            <stop offset="0%" stop-color="#FF4D3A" />
            <stop offset="100%" stop-color="#FFA000" />
        </linearGradient>
        <linearGradient id="g-bar" x1="0" x2="1" y1="0.5" y2="0.5">
            <stop offset="0%" stop-color="#FF4D3A" />
            <stop offset="100%" stop-color="#FFA000" />
        </linearGradient>
        <linearGradient id="g-pulse" x1="0" x2="1" y1="0.5" y2="0.5">
            <stop offset="0%" stop-color="#FFA000" />
            <stop offset="100%" stop-color="#FF7A1A" />
        </linearGradient>
        <filter id="soft" x="-10%" y="-10%" width="120%" height="120%">
            <feGaussianBlur in="SourceAlpha" stdDeviation="6" result="blur" />
            <feColorMatrix in="blur" type="matrix"
                values="0 0 0 0 0
                  0 0 0 0 0
                  0 0 0 0 0
                  0 0 0 0.20 0"
                result="shadow" />
            <feMerge>
                <feMergeNode in="shadow" />
                <feMergeNode in="SourceGraphic" />
            </feMerge>
        </filter>
    </defs>

    <!-- Fundo escuro -->
    <!-- <rect x="0" y="0" width="1024" height="1024" fill="#0E1116" /> -->

    <!-- Moldura estilo Apple Watch -->
    <rect x="64" y="64" width="896" height="896" rx="180" ry="180"
        fill="none" stroke="url(#g-border)" stroke-width="32" />

    <!-- Área interna levemente mais clara (opcional) -->
    <!-- <rect x="96" y="96" width="832" height="832" rx="160" ry="160"
        fill="#0B0F15" /> -->

    <!-- Anilhas (esquerda e direita) -->
    <rect x="250" y="458" width="120" height="108" rx="18" fill="#FF4D3A" filter="url(#soft)" />
    <rect x="654" y="458" width="120" height="108" rx="18" fill="#FFA000" filter="url(#soft)" />

    <!-- Barrra horizontal com gradiente -->
    <line x1="310" y1="512" x2="714" y2="512"
        stroke="url(#g-bar)" stroke-width="36" stroke-linecap="round" />

    <!-- “H” central como duas colunas arredondadas -->
    <rect x="440" y="392" width="48" height="240" rx="24" fill="#0E1116" />
    <rect x="536" y="392" width="48" height="240" rx="24" fill="#0E1116" />

    <!-- Pulso (progressão) sobrepondo a barra -->
    <polyline points="340,512 430,512 480,560 544,452 600,512 684,512"
        fill="none" stroke="url(#g-pulse)" stroke-width="28"
        stroke-linecap="round" stroke-linejoin="round" />

    <!-- Nós azuis (IA) -->
    <circle cx="408" cy="360" r="20" fill="#25D3FF" />
    <circle cx="616" cy="360" r="20" fill="#25D3FF" />
    <circle cx="512" cy="660" r="22" fill="#25D3FF" />
</svg>
  